<svg width="30" height="30" viewBox="0 0 30 30" fill="none" xmlns="http://www.w3.org/2000/svg">
<path d="M23.75 3.75H6.25C4.875 3.75 3.75 4.875 3.75 6.25V23.75C3.75 25.125 4.875 26.25 6.25 26.25H23.75C25.125 26.25 26.25 25.125 26.25 23.75V6.25C26.25 4.875 25.125 3.75 23.75 3.75ZM15.0125 22.5C14.1375 22.5 13.4375 21.8 13.4375 20.925C13.4375 20.0375 14.1375 19.3625 15.0125 19.3625C15.9 19.3625 16.575 20.0375 16.575 20.925C16.5625 21.7875 15.9 22.5 15.0125 22.5ZM18.775 13.25C17.825 14.6375 16.925 15.075 16.4375 15.9625C16.2375 16.325 16.1625 16.5625 16.1625 17.725H13.8875C13.8875 17.1125 13.7875 16.1125 14.275 15.25C14.8875 14.1625 16.05 13.5125 16.725 12.55C17.4375 11.5375 17.0375 9.6375 15.0125 9.6375C13.6875 9.6375 13.0375 10.6375 12.7625 11.4875L10.7 10.6125C11.2625 8.9375 12.775 7.5 14.9875 7.5C16.8375 7.5 18.1 8.3375 18.75 9.4C19.3 10.3 19.625 11.9875 18.775 13.25Z" fill="white"/>
</svg>
