<svg xmlns="http://www.w3.org/2000/svg" xmlns:xlink="http://www.w3.org/1999/xlink" viewBox="0 0 669.26 429.34"><defs><style>.cls-1,.cls-10,.cls-11,.cls-18,.cls-24,.cls-25,.cls-28,.cls-32,.cls-35,.cls-39,.cls-41,.cls-43,.cls-46,.cls-47,.cls-49,.cls-51,.cls-52,.cls-54,.cls-55,.cls-57,.cls-59,.cls-60,.cls-61,.cls-62,.cls-66,.cls-67,.cls-7,.cls-70,.cls-71,.cls-74,.cls-75,.cls-76,.cls-77,.cls-8,.cls-80{fill:none;}.cls-2{isolation:isolate;}.cls-3{fill:#f0fbff;}.cls-4{fill:#82bcf4;}.cls-5{fill:#c0e4ff;}.cls-6{fill:#9ad0fc;}.cls-7,.cls-8{stroke:#9dd4f9;}.cls-10,.cls-13,.cls-16,.cls-18,.cls-28,.cls-39,.cls-55,.cls-57,.cls-59,.cls-60,.cls-7,.cls-71,.cls-8,.cls-9{stroke-linejoin:round;}.cls-8{stroke-dasharray:3.5 3.5;}.cls-16,.cls-19,.cls-23,.cls-9{fill:#fff;}.cls-10,.cls-9{stroke:#b8e6ff;}.cls-11{stroke:#86bfef;}.cls-11,.cls-23,.cls-24,.cls-25,.cls-32,.cls-35,.cls-41,.cls-43,.cls-46,.cls-47,.cls-49,.cls-51,.cls-52,.cls-54,.cls-61,.cls-62,.cls-66,.cls-67,.cls-70,.cls-74,.cls-75,.cls-76,.cls-77,.cls-80{stroke-miterlimit:10;}.cls-12{fill:#86bfef;}.cls-13{fill:#52a5ff;}.cls-13,.cls-16,.cls-71{stroke:#418be5;}.cls-14{fill:#6ebeff;}.cls-15{fill:#85ceff;}.cls-17{clip-path:url(#clip-path);}.cls-18,.cls-28{stroke:#def2ff;}.cls-18{stroke-width:5px;}.cls-20,.cls-21{fill:#def2ff;}.cls-21{opacity:0.55;mix-blend-mode:screen;}.cls-22{clip-path:url(#clip-path-2);}.cls-23,.cls-24,.cls-25{stroke:#ccedff;}.cls-25,.cls-51,.cls-55{stroke-linecap:round;}.cls-25,.cls-28{stroke-width:3px;}.cls-26{fill:#ccedff;}.cls-27{fill:#e6f7ff;}.cls-29{fill:#ffab37;}.cls-30{fill:#f3e0cc;}.cls-31{clip-path:url(#clip-path-3);}.cls-32{stroke:#f4c6a4;}.cls-32,.cls-35{stroke-width:1.5px;}.cls-33{fill:#af480e;}.cls-34{clip-path:url(#clip-path-4);}.cls-35{stroke:#acd9fc;}.cls-36{fill:#ff5c5c;}.cls-37{fill:#f886bc;}.cls-38{fill:#22252d;}.cls-39{stroke:#1a3987;}.cls-39,.cls-41,.cls-43,.cls-46,.cls-47,.cls-49,.cls-52,.cls-57,.cls-59,.cls-60,.cls-61,.cls-74,.cls-75,.cls-76,.cls-77,.cls-80{stroke-width:0.75px;}.cls-40{fill:#592921;}.cls-41{stroke:#a35945;}.cls-42{fill:#0b0b3a;}.cls-43{stroke:#e2aa79;}.cls-44{fill:#0070e4;}.cls-45{fill:#18277a;}.cls-46{stroke:#5288ff;}.cls-47{stroke:#e26223;}.cls-48{fill:#e26223;}.cls-49{stroke:#113d98;}.cls-50{fill:#00276f;}.cls-51{stroke:#0070e4;}.cls-51,.cls-54,.cls-55,.cls-62,.cls-66,.cls-67,.cls-70{stroke-width:0.5px;}.cls-52,.cls-54{stroke:#c93a8c;}.cls-53{fill:#ff855a;}.cls-55{stroke:#00276f;}.cls-56{fill:#bc3f39;}.cls-57{stroke:#912623;}.cls-58{fill:#d34f42;}.cls-59{stroke:#7c1f1a;}.cls-60{stroke:#4c5360;}.cls-61{stroke:#f9d9d7;}.cls-62{stroke:#0b0b3a;}.cls-63{fill:#212237;}.cls-64{fill:#4c82fc;}.cls-65{fill:#202263;}.cls-66{stroke:#4c82fc;}.cls-67{stroke:#1a4fc6;}.cls-68{fill:#4348a3;}.cls-69{fill:#103bb2;}.cls-70{stroke:#458df4;}.cls-72{fill:#f46cb4;}.cls-73{fill:#101d54;}.cls-74{stroke:#773026;}.cls-75{stroke:#1a3a7a;}.cls-76{stroke:#c44220;}.cls-77{stroke:#304dc6;}.cls-78{fill:#a5a5a5;}.cls-79{fill:#bdbdbd;}.cls-80{stroke:#868a8e;}</style><clipPath id="clip-path"><rect class="cls-1" x="174.68" y="114.95" width="151.89" height="230.63"/></clipPath><clipPath id="clip-path-2"><rect class="cls-1" x="347.88" y="106.85" width="151.89" height="238.72" transform="translate(847.65 452.43) rotate(180)"/></clipPath><clipPath id="clip-path-3"><path class="cls-1" d="M98,330.44a14.11,14.11,0,0,1,0-28.21h167v28.21Z"/></clipPath><clipPath id="clip-path-4"><path class="cls-1" d="M90.45,400a26.78,26.78,0,1,1,0-53.55H296.9V400Z"/></clipPath></defs><title>kaa</title><g class="cls-2"><g id="Layer_2" data-name="Layer 2"><g id="OBJECTS"><path class="cls-3" d="M522.29,49.19c-1.61-.82-3.39-1.21-4.91-2.2-4.3-2.83-5.06-8.85-6.82-13.59a12.19,12.19,0,0,0-12.89-7.72c-3.94.4-7,2.75-9.61,5.57-1.69,1.83-2.19,7.91-7.39,8-1,0-1.81-.86-2.65-1.47-2.5-1.81-6.38-.48-7.49,2.56-.55,1.5-.51,3.27-1.37,4.59-2.2,3.36-7.65.69-10.54,3.36-1,1-1.54,2.45-2.45,3.57-1.31,1.62-3.33,2.29-5.24,2.84-5.3,1.53-12.16,1.76-12.16,3.5,0,2.45,27.24,1,43.24,1h26.41c4.1,0,17.25,1.94,17.05-5.7C525.42,51.54,523.89,50,522.29,49.19Z"/><path class="cls-3" d="M128.36,88.31c-.9-1.54-1.19-3.53-1.84-5.28-1.44-3.85-4.77-6.29-8-5.84-1.5.2-2.94,1-4.44,1-6.89,0-7.27-11.59-12.48-15.18-4.61-3.18-10.34-.61-13.22,4.52C86.74,70.43,85.94,74,84.7,77.3S81.15,81,78.43,81.62s-5.72,3.84-4.87,7.73a6.36,6.36,0,0,0,2.28,3.86C80.21,96.28,88,96,93.74,95.78c5.39-.16,49.34.34,49.34-1.47S131,92.9,128.36,88.31Z"/><path class="cls-3" d="M392.08,23.68a1.93,1.93,0,0,1-.17-.21c-1.63-2.15-2.27-4.5-5-4.65-3.19-.18-8.4.85-9.72-4-.8-2.92,0-6.32-1.71-8.88a5.53,5.53,0,0,0-5-2.44c-3.18.18-5.76,3-8.87,3.49-3.65.63-5.38-3.73-8.31-5.55-5.19-3.21-9.64-.37-12.3,2.23a20.05,20.05,0,0,0-5.39,11.87c-.66,5.59,3.44,11,7.81,13.47a14.19,14.19,0,0,0,6.95,1.51c2.78,0,5.57-.09,8.34-.17,5.21-.14,47.77.32,47.77-1.35,0-1-6.19-2-7.07-2.37C396.93,25.72,394.05,26.06,392.08,23.68Z"/><polygon class="cls-4" points="185.62 48.69 185.86 54.55 162.85 30.52 185.62 48.69"/><polygon class="cls-5" points="195.71 41.72 174.14 56.47 162.85 30.52 195.71 41.72"/><polygon class="cls-6" points="187.46 47.36 162.85 30.52 183.94 49.77 185.86 54.55 187.46 47.36"/><line class="cls-7" x1="607.97" y1="115.82" x2="607.97" y2="120.44"/><line class="cls-7" x1="610.29" y1="118.13" x2="605.66" y2="118.13"/><line class="cls-7" x1="646.02" y1="315.66" x2="646.02" y2="320.29"/><line class="cls-7" x1="648.33" y1="317.98" x2="643.71" y2="317.98"/><line class="cls-7" x1="600.13" y1="156.77" x2="600.13" y2="161.4"/><line class="cls-7" x1="602.44" y1="159.09" x2="597.82" y2="159.09"/><line class="cls-7" x1="145.86" y1="74.11" x2="145.86" y2="78.73"/><line class="cls-7" x1="148.17" y1="76.42" x2="143.55" y2="76.42"/><line class="cls-7" x1="21.27" y1="174.45" x2="21.27" y2="179.08"/><line class="cls-7" x1="23.58" y1="176.76" x2="18.96" y2="176.76"/><line class="cls-7" x1="33.96" y1="356.17" x2="33.96" y2="360.79"/><line class="cls-7" x1="36.27" y1="358.48" x2="31.65" y2="358.48"/><line class="cls-7" x1="335.57" y1="46.8" x2="335.57" y2="51.42"/><line class="cls-7" x1="337.88" y1="49.11" x2="333.26" y2="49.11"/><path class="cls-7" d="M355.34,91.29a2.21,2.21,0,1,1-2.21-2.2A2.21,2.21,0,0,1,355.34,91.29Z"/><path class="cls-7" d="M641.56,168.71a2.21,2.21,0,1,1-2.21-2.21A2.21,2.21,0,0,1,641.56,168.71Z"/><path class="cls-7" d="M448.76,30.52a2.21,2.21,0,1,1-2.21-2.21A2.21,2.21,0,0,1,448.76,30.52Z"/><path class="cls-7" d="M243.64,74.11a2.21,2.21,0,1,1-2.2-2.21A2.2,2.2,0,0,1,243.64,74.11Z"/><circle class="cls-7" cx="555.23" cy="91.29" r="2.21"/><circle class="cls-7" cx="2.71" cy="227.69" r="2.21"/><circle class="cls-7" cx="83.87" cy="141.76" r="2.21"/><path class="cls-7" d="M127.76,61.67a2.21,2.21,0,1,1-2.2-2.2A2.2,2.2,0,0,1,127.76,61.67Z"/><line class="cls-7" x1="51.89" y1="118.13" x2="76.82" y2="118.13"/><line class="cls-7" x1="84.42" y1="118.13" x2="95.55" y2="118.13"/><line class="cls-7" x1="487.64" y1="76.31" x2="512.57" y2="76.31"/><line class="cls-7" x1="520.17" y1="76.31" x2="531.29" y2="76.31"/><line class="cls-7" x1="290.27" y1="37.46" x2="273.33" y2="37.46"/><line class="cls-7" x1="267.74" y1="37.46" x2="258.61" y2="37.46"/><line class="cls-7" x1="379.54" y1="55.05" x2="397.77" y2="55.05"/><line class="cls-7" x1="627.03" y1="248.24" x2="645.25" y2="248.24"/><line class="cls-7" x1="640.01" y1="241.62" x2="651.99" y2="241.62"/><path class="cls-8" d="M512.31,321.84c-23.32-2-46.25-7.68-69.74-7.93-10.77-.12-24,.14-34,4.92-9.48,4.56-17.1,12.73-27.14,16.65a48,48,0,0,1-14.36,2.86c-39.35,2.66-72.65-20.13-108.94-30.94-14.46-4.31-30.57,1.09-45.05,4-19.4,3.84-38.51,10.24-58.5,9.38-43.36-1.86-96.1-24.08-113.56-66.82-7.54-18.45-9.37-40.82,1.32-58.46,12.25-20.23,38.18-26.2,60.93-32.7,25.48-7.28,49.79-22.71,68-42.32,13.22-14.23,19.24-33,30.4-48.64,12.58-17.59,35.93-29.66,57.55-22.07,23,8.08,39.58,24.14,65.26,25.93,18.72,1.3,36.29-4.1,54.74-4.75a88.37,88.37,0,0,1,71.58,33.37c8,10.26,13.76,22.35,23.18,31.33,17.13,16.32,43.05,19.24,66.64,17.36s47.19-14.56,70.6-11.07c26.92,4,54,25,56,54.4,2.52,37.36-15.65,72.84-44.15,96.29C592.5,317.82,551,325.13,512.31,321.84Z"/><path class="cls-9" d="M161.76,262.41c-16.9-19.29-50.12-61-34.3-152.32,54,48.56,59.89,80.26,62.19,141.1"/><path class="cls-10" d="M127.46,110.09s9.39,73.74,47.81,144.28"/><path class="cls-10" d="M127.46,110.09s-5.8,78.71,41.9,150.17"/><path class="cls-10" d="M179,251.6c-2.31-17.35-32.45-102.72-51.5-141.51"/><path class="cls-10" d="M184.54,247.62c-7.89-43.93-14.16-87.35-57.08-137.53"/><path class="cls-9" d="M149.44,277.68c-19.18-10.79-58-35.1-71.24-113.51,57.53,23.9,71.39,47.87,90.61,96.46"/><path class="cls-10" d="M78.2,164.17s28.65,57,79.88,103.14"/><path class="cls-10" d="M78.2,164.17S96,229.54,155,273.77"/><path class="cls-10" d="M160.28,264c-6.82-13.39-55.59-73.89-82.08-99.85"/><path class="cls-10" d="M163.66,259.2c-18.93-33.3-36.4-66.66-85.46-95"/><path class="cls-9" d="M135.23,337.82c-25.6-1.52-78.65-7.18-132.52-82.56C75.17,251,101.9,269,146.82,310.09"/><path class="cls-10" d="M2.71,255.26S61.79,300.37,139,322.56"/><path class="cls-10" d="M2.71,255.26s52,59.42,136.32,75.65"/><path class="cls-10" d="M139.62,318c-14-10.53-95.92-49-136.91-62.72"/><path class="cls-10" d="M140.7,311.21C103.88,286,68.57,260,2.71,255.26"/><path class="cls-11" d="M129.55,307.26c-12.12-56.95-60.64-86.62-60.64-86.62"/><path class="cls-12" d="M70.37,221.59S60.8,204,53.6,209.25,70.37,221.59,70.37,221.59Z"/><path class="cls-12" d="M78.77,227.77s4.56-20.73-4.86-21.5S78.77,227.77,78.77,227.77Z"/><path class="cls-12" d="M86.76,234.53s12.3-17.29,3.93-21.68S86.76,234.53,86.76,234.53Z"/><path class="cls-12" d="M97.21,244.85s11.58-16.28,3.7-20.41S97.21,244.85,97.21,244.85Z"/><path class="cls-12" d="M97.83,244.7s-18.67-7.11-20.68,1.55S97.83,244.7,97.83,244.7Z"/><path class="cls-12" d="M105.57,254.75s11.58-16.28,3.7-20.42S105.57,254.75,105.57,254.75Z"/><path class="cls-12" d="M106.19,254.59s-18.66-7.11-20.68,1.56S106.19,254.59,106.19,254.59Z"/><path class="cls-12" d="M112.53,266.39s13.58-14.64,6.31-19.76S112.53,266.39,112.53,266.39Z"/><path class="cls-12" d="M113.16,266.32s-17.59-9.47-20.71-1.14S113.16,266.32,113.16,266.32Z"/><path class="cls-12" d="M119.15,276.8s13.59-14.65,6.31-19.77S119.15,276.8,119.15,276.8Z"/><path class="cls-12" d="M119.78,276.72s-17.59-9.46-20.71-1.13S119.78,276.72,119.78,276.72Z"/><path class="cls-12" d="M124.52,290.91s13.59-14.64,6.31-19.76S124.52,290.91,124.52,290.91Z"/><path class="cls-12" d="M125.15,290.84s-17.59-9.47-20.71-1.14S125.15,290.84,125.15,290.84Z"/><path class="cls-12" d="M86.45,234.51S65.26,233.35,66,242.77,86.45,234.51,86.45,234.51Z"/><path class="cls-12" d="M78.41,227s-20-7.09-21.93,2.16S78.41,227,78.41,227Z"/><path class="cls-11" d="M100.46,350.54C66.94,315.85,19.82,316.3,19.82,316.3"/><path class="cls-12" d="M21.27,316.33S6.81,308.15,4.06,315,21.27,316.33,21.27,316.33Z"/><path class="cls-12" d="M29.88,317S24,300.42,17,304,29.88,317,29.88,317Z"/><path class="cls-12" d="M38.47,318.23s1.05-17.55-6.76-17S38.47,318.23,38.47,318.23Z"/><path class="cls-12" d="M50.34,320.89s1-16.52-6.36-16S50.34,320.89,50.34,320.89Z"/><path class="cls-12" d="M50.71,320.51s-16.24,3.2-13.86,10.17S50.71,320.51,50.71,320.51Z"/><path class="cls-12" d="M60.56,324.17s1-16.52-6.36-16S60.56,324.17,60.56,324.17Z"/><path class="cls-12" d="M60.93,323.79S44.69,327,47.07,334,60.93,323.79,60.93,323.79Z"/><path class="cls-12" d="M70.56,329.3s3.12-16.25-4.24-16.65S70.56,329.3,70.56,329.3Z"/><path class="cls-12" d="M71,329s-16.51,1.07-15,8.3S71,329,71,329Z"/><path class="cls-12" d="M79.78,333.71s3.12-16.26-4.24-16.66S79.78,333.71,79.78,333.71Z"/><path class="cls-12" d="M80.19,333.38s-16.51,1.07-15,8.29S80.19,333.38,80.19,333.38Z"/><path class="cls-12" d="M89.75,341.27s3.12-16.26-4.24-16.66S89.75,341.27,89.75,341.27Z"/><path class="cls-12" d="M90.16,340.94s-16.51,1.07-15,8.29S90.16,340.94,90.16,340.94Z"/><path class="cls-12" d="M38.24,318.35s-15.4,8.49-10.73,14.77S38.24,318.35,38.24,318.35Z"/><path class="cls-12" d="M29.3,316.61s-17.17,3.79-14.47,11.14S29.3,316.61,29.3,316.61Z"/><path class="cls-9" d="M508.43,238.85c20.46-15.47,61.44-49.62,64.43-142.22C510.19,133.26,498,163.1,483.4,222.22"/><path class="cls-10" d="M572.86,96.63s-24.12,70.31-76,131.61"/><path class="cls-10" d="M572.86,96.63s-10.25,78.26-71.43,138.58"/><path class="cls-10" d="M493.77,224.78c5.78-16.52,52.58-94,79.09-128.15"/><path class="cls-10" d="M489.12,219.75c16.62-41.42,31.55-82.67,83.74-123.12"/><path class="cls-9" d="M533.18,289.53c24.84-6.36,75.85-22,114.43-106.23-72,9.54-94.78,32.33-131.08,81.2"/><path class="cls-10" d="M647.61,183.3s-49.45,55.51-121,91.95"/><path class="cls-10" d="M647.61,183.3s-39.73,68.2-119.48,100.16"/><path class="cls-10" d="M525.1,270.88c11.72-13,84.86-66.36,122.51-87.58"/><path class="cls-10" d="M522.75,264.44c31.36-31.76,61.08-64,124.86-81.14"/><path class="cls-9" d="M522.87,328.24c25.41,3.42,78.56,8,145.89-55.62-70.29-18.12-100-5.54-152,26.18"/><path class="cls-10" d="M668.76,272.62s-66.64,32.94-146.66,39.92"/><path class="cls-10" d="M668.76,272.62s-62.39,48.35-148.3,48.1"/><path class="cls-10" d="M522.37,307.93c15.73-7.66,103.54-29.74,146.39-35.31"/><path class="cls-10" d="M522.6,301.08c41-17.7,80.62-36.48,146.16-28.46"/><path class="cls-9" d="M501.55,352.53c16.71,11.54,52.3,33.77,115.23,10.51-44-38.3-67.76-39.5-111.86-34.44"/><path class="cls-10" d="M616.78,363s-54.57.78-111.72-22.4"/><path class="cls-10" d="M616.78,363s-55.59,13.69-115-16.92"/><path class="cls-10" d="M506.42,337.33c12.85-.1,79.28,14.66,110.36,25.71"/><path class="cls-10" d="M508.34,332.34c32.9,1.41,65.15,1.56,108.44,30.7"/><path class="cls-11" d="M531.88,251.55c12.11-56.94,60.63-86.62,60.63-86.62"/><path class="cls-12" d="M591.06,165.89s9.56-17.63,16.77-12.35S591.06,165.89,591.06,165.89Z"/><path class="cls-12" d="M582.66,172.07s-4.57-20.73,4.85-21.5S582.66,172.07,582.66,172.07Z"/><path class="cls-12" d="M574.66,178.83s-12.29-17.3-3.92-21.68S574.66,178.83,574.66,178.83Z"/><path class="cls-12" d="M564.21,189.15s-11.58-16.28-3.7-20.42S564.21,189.15,564.21,189.15Z"/><path class="cls-12" d="M563.59,189s18.67-7.11,20.69,1.56S563.59,189,563.59,189Z"/><path class="cls-12" d="M555.85,199s-11.58-16.28-3.7-20.41S555.85,199,555.85,199Z"/><path class="cls-12" d="M555.23,198.89s18.67-7.11,20.69,1.55S555.23,198.89,555.23,198.89Z"/><path class="cls-12" d="M548.9,210.69s-13.59-14.65-6.31-19.76S548.9,210.69,548.9,210.69Z"/><path class="cls-12" d="M548.26,210.62s17.59-9.47,20.72-1.14S548.26,210.62,548.26,210.62Z"/><path class="cls-12" d="M542.27,221.09s-13.58-14.64-6.31-19.76S542.27,221.09,542.27,221.09Z"/><path class="cls-12" d="M541.64,221s17.59-9.47,20.71-1.14S541.64,221,541.64,221Z"/><path class="cls-12" d="M536.9,235.21s-13.58-14.65-6.31-19.76S536.9,235.21,536.9,235.21Z"/><path class="cls-12" d="M536.27,235.14S553.86,225.67,557,234,536.27,235.14,536.27,235.14Z"/><path class="cls-12" d="M575,178.81s21.19-1.16,20.44,8.26S575,178.81,575,178.81Z"/><path class="cls-12" d="M583,171.31s20-7.1,21.93,2.15S583,171.31,583,171.31Z"/><path class="cls-11" d="M509.47,358.48c35.69-30,80.92-24.79,80.92-24.79"/><path class="cls-12" d="M589,333.58s14.72-6.41,16.67.47S589,333.58,589,333.58Z"/><path class="cls-12" d="M580.66,333.34S588,318,594.31,322.17,580.66,333.34,580.66,333.34Z"/><path class="cls-12" d="M572.28,333.67s.76-17,8.21-15.62S572.28,333.67,572.28,333.67Z"/><path class="cls-12" d="M560.61,335s.71-16,7.72-14.7S560.61,335,560.61,335Z"/><path class="cls-12" d="M560.29,334.63s15.28,4.71,12.29,11.17S560.29,334.63,560.29,334.63Z"/><path class="cls-12" d="M550.46,337.16s.71-16,7.72-14.71S550.46,337.16,550.46,337.16Z"/><path class="cls-12" d="M550.14,336.75s15.28,4.71,12.29,11.17S550.14,336.75,550.14,336.75Z"/><path class="cls-12" d="M540.33,341.08s-1.36-15.93,5.75-15.58S540.33,341.08,540.33,341.08Z"/><path class="cls-12" d="M540,340.72s15.76,2.69,13.63,9.49S540,340.72,540,340.72Z"/><path class="cls-12" d="M531,344.38s-1.36-15.93,5.75-15.57S531,344.38,531,344.38Z"/><path class="cls-12" d="M530.67,344s15.76,2.69,13.63,9.49S530.67,344,530.67,344Z"/><path class="cls-12" d="M520.69,350.64s-1.36-15.93,5.75-15.57S520.69,350.64,520.69,350.64Z"/><path class="cls-12" d="M520.32,350.29S536.09,353,534,359.77,520.32,350.29,520.32,350.29Z"/><path class="cls-12" d="M572.49,333.81s13.94,9.7,8.83,15.27S572.49,333.81,572.49,333.81Z"/><path class="cls-12" d="M581.25,333s16.12,5.37,12.78,12.16S581.25,333,581.25,333Z"/><path class="cls-13" d="M158.57,104.63H515.88a5.32,5.32,0,0,1,5.32,5.32V368.26a5.31,5.31,0,0,1-5.31,5.31H158.57a5.31,5.31,0,0,1-5.31-5.31V109.95A5.32,5.32,0,0,1,158.57,104.63Z"/><rect class="cls-14" x="159.73" y="111.22" width="177.49" height="255.36"/><rect class="cls-14" x="337.22" y="111.22" width="177.49" height="255.36" transform="translate(851.94 477.79) rotate(180)"/><path class="cls-15" d="M164.05,109.18V364c115.29-9.3,173.2,2,173.2,2V111.18S294.48,86.27,164.05,109.18Z"/><path class="cls-16" d="M164,109.18V364c130.44-22.91,173.2,2,173.2,2V111.18S294.46,86.27,164,109.18Z"/><path class="cls-15" d="M510.42,109.18V364c-115.29-9.3-173.2,2-173.2,2V111.18S380,86.27,510.42,109.18Z"/><path class="cls-16" d="M510.42,109.18V364c-130.43-22.91-173.2,2-173.2,2V111.18S380,86.27,510.42,109.18Z"/><g class="cls-17"><path class="cls-18" d="M330.17,133.15s-39.3-22.89-159.14-1.84"/><path class="cls-18" d="M330.17,150.42s-39.3-22.89-159.14-1.83"/><path class="cls-18" d="M330.17,167.69S290.87,144.8,171,165.86"/><path class="cls-18" d="M330.17,185s-39.3-22.88-159.14-1.83"/><path class="cls-18" d="M330.17,202.24S290.87,179.35,171,200.4"/><path class="cls-18" d="M330.17,219.51s-39.3-22.89-159.14-1.83"/><path class="cls-18" d="M330.17,236.78S290.87,213.9,171,235"/><path class="cls-18" d="M330.17,254.06s-39.3-22.89-159.14-1.84"/><path class="cls-18" d="M330.17,271.33S290.87,248.44,171,269.5"/><path class="cls-18" d="M330.17,288.6s-39.3-22.89-159.14-1.83"/><path class="cls-18" d="M330.17,305.87S290.87,283,171,304"/><path class="cls-18" d="M330.17,323.15s-39.3-22.89-159.14-1.84"/><path class="cls-18" d="M330.17,340.42s-39.3-22.89-159.14-1.83"/><rect class="cls-19" x="250.84" y="114.95" width="80.44" height="72.42"/><path class="cls-20" d="M257.66,119.52v57.35c53.08-.58,72.51,10.7,72.51,10.7V130.23S310.74,118.94,257.66,119.52Z"/><path class="cls-21" d="M266.34,171.5s9.84-18,17.76-26.1c11.27,8.65,27.19,31.26,27.19,31.26S296.45,170.57,266.34,171.5Z"/><path class="cls-21" d="M314.72,177.27A61.88,61.88,0,0,1,325,180.88S308,156.4,299.09,148.41L295.48,152S307,165.05,314.72,177.27Z"/><path class="cls-21" d="M319.35,137c-.68,2.41-3.7,3.66-6.75,2.8s-5-3.51-4.28-5.92,3.7-3.66,6.75-2.8S320,134.58,319.35,137Z"/></g><g class="cls-22"><path class="cls-18" d="M344.28,288.6s39.29-22.89,159.14-1.83"/><path class="cls-18" d="M344.28,305.87S383.57,283,503.42,304"/><path class="cls-18" d="M344.28,323.15s39.29-22.89,159.14-1.84"/><path class="cls-18" d="M344.28,340.42s39.29-22.89,159.14-1.83"/><path class="cls-23" d="M392.21,188.08a35.74,35.74,0,1,1,64.62,21h0c-5.1,7.69-18.35,14-18.35,24.57v5.94a2.14,2.14,0,0,1-2.15,2.14H419.57a2.14,2.14,0,0,1-2.15-2.14v-5.94c0-10.54-13.25-16.88-18.36-24.57h0A35.6,35.6,0,0,1,392.21,188.08Z"/><path class="cls-24" d="M432.64,240.14c-.21-4.92-1.33-36.28,3.82-46.34,2.53-4.93,7.26-7.09,10.34-5.26,2,1.23,3,4.52,2.54,7.53-.89,5.91-6.33,13.21-21.08,13.21s-20.18-7.3-21.07-13.21c-.45-3,.49-6.3,2.54-7.53,3.08-1.83,7.81.33,10.33,5.26,5.15,10.06,4,41.42,3.83,46.34"/><path class="cls-25" d="M435.6,158.18a29.79,29.79,0,0,1,22.45,28.87"/><path class="cls-26" d="M427.57,157.21a2.06,2.06,0,1,0,2.06-2.05A2.05,2.05,0,0,0,427.57,157.21Z"/><path class="cls-26" d="M439.64,235.2H416.89V246a9.33,9.33,0,0,0,1.45,5h0a9.8,9.8,0,0,0,8.26,4.53h3.33a9.77,9.77,0,0,0,8.25-4.53h0a9.34,9.34,0,0,0,1.46-5Z"/><path class="cls-27" d="M439.64,243.19h-.2L416.7,240a1.42,1.42,0,1,1,.39-2.82l22.74,3.16a1.42,1.42,0,0,1-.19,2.82Z"/><path class="cls-27" d="M439.64,248.15h-.2L416.7,245a1.42,1.42,0,1,1,.39-2.81l22.74,3.15a1.42,1.42,0,0,1-.19,2.82Z"/><path class="cls-27" d="M438.73,253h-.2L417,250a1.42,1.42,0,1,1,.39-2.81l21.56,3a1.42,1.42,0,0,1-.19,2.82Z"/><path class="cls-24" d="M413,170.67V114.22s3.66-.12,10-.08"/><path class="cls-28" d="M427.44,121c14.68.36,31.59,1.53,50.95,3.88"/><path class="cls-28" d="M427.44,127.28c14.68.35,31.59,1.52,50.95,3.88"/><path class="cls-28" d="M427.44,114.79c14.68.35,31.59,1.52,50.95,3.88"/><path class="cls-28" d="M427.44,134.17c5.78.14,11.91.4,18.39.82"/><path class="cls-26" d="M424.61,114.14A1.64,1.64,0,1,1,423,112.5,1.64,1.64,0,0,1,424.61,114.14Z"/><path class="cls-24" d="M354.57,164l0,36.68a210.12,210.12,0,0,1,36.28-5.1"/><path class="cls-28" d="M354.41,143.33a212.75,212.75,0,0,1,38.46-5.26"/><path class="cls-28" d="M354.41,150.76a213.83,213.83,0,0,1,38.46-5.25"/><path class="cls-28" d="M354.41,158.2a196.87,196.87,0,0,1,29.27-4.59"/><path class="cls-26" d="M356.21,164a1.64,1.64,0,1,1-1.64-1.64A1.63,1.63,0,0,1,356.21,164Z"/><polyline class="cls-24" points="444 247.89 444 266.19 459.53 266.19"/><path class="cls-28" d="M462.84,246.44s18.33,1,39.73,4.44"/><path class="cls-28" d="M462.84,252.68s18.33,1,39.73,4.45"/><path class="cls-28" d="M462.84,258.92s18.33,1,39.73,4.45"/><path class="cls-28" d="M462.84,265.17s9.33.5,22.44,2"/><path class="cls-26" d="M461.17,266.19a1.64,1.64,0,1,1-1.64-1.64A1.65,1.65,0,0,1,461.17,266.19Z"/></g><path class="cls-19" d="M98,336.94a20.61,20.61,0,0,1,0-41.21H264.43v41.21Z"/><path class="cls-29" d="M263.93,296.23v40.21H98a20.11,20.11,0,0,1,0-40.21h166m1-1H98a21.11,21.11,0,0,0,0,42.21h167V295.23Z"/><path class="cls-30" d="M98,330.94a14.61,14.61,0,0,1,0-29.21H265.43v29.21Z"/><path class="cls-29" d="M264.93,302.23v28.21H98a14.11,14.11,0,0,1,0-28.21h167m1-1H98a15.11,15.11,0,0,0,0,30.21h168V301.23Z"/><g class="cls-31"><line class="cls-32" x1="74.2" y1="314.61" x2="264.93" y2="314.61"/><line class="cls-32" x1="75.87" y1="323.49" x2="266.6" y2="323.49"/><polygon class="cls-33" points="220.39 323.33 215.07 319.47 209.76 323.33 209.76 309.34 220.39 309.34 220.39 323.33"/><line class="cls-32" x1="84.84" y1="309.34" x2="264.93" y2="309.34"/></g><path class="cls-19" d="M90.45,408.49a35.28,35.28,0,1,1,0-70.55H299.61a1,1,0,0,1,1,1v6a1,1,0,0,1-1,1H91c-14.92,0-27.4,11.86-27.83,26.45a27.29,27.29,0,0,0,27.26,28.1H299.61a1,1,0,0,1,1,1v6.05a1,1,0,0,1-1,1Z"/><path class="cls-12" d="M299.61,338.44a.48.48,0,0,1,.48.48v6a.49.49,0,0,1-.48.48H91c-15.18,0-27.89,12.08-28.33,26.93A27.8,27.8,0,0,0,90.45,401H299.61a.48.48,0,0,1,.48.47v6.05a.49.49,0,0,1-.48.48H90.45a34.78,34.78,0,1,1,0-69.55H299.61m0-1H90.45a35.78,35.78,0,0,0-35.78,35.77h0A35.78,35.78,0,0,0,90.45,409H299.61a1.49,1.49,0,0,0,1.48-1.48v-6.05a1.48,1.48,0,0,0-1.48-1.47H90.45A26.81,26.81,0,0,1,63.69,372.4c.43-14.56,12.76-26,27.33-26H299.61a1.48,1.48,0,0,0,1.48-1.48v-6a1.48,1.48,0,0,0-1.48-1.48Z"/><path class="cls-5" d="M90.45,400a26.78,26.78,0,1,1,0-53.55H296.9V400Z"/><g class="cls-34"><line class="cls-35" x1="58.58" y1="363.29" x2="309.59" y2="363.29"/><line class="cls-35" x1="58.58" y1="377.8" x2="309.59" y2="377.8"/><line class="cls-35" x1="58.58" y1="390.81" x2="309.59" y2="390.81"/><line class="cls-35" x1="58.58" y1="352.32" x2="309.59" y2="352.32"/></g><polygon class="cls-36" points="101.35 404.96 92.61 395.46 83.87 404.96 83.87 363.29 101.35 363.29 101.35 404.96"/><path class="cls-37" d="M399.55,393.87l-.57,25,.2,7.52-17-.15a1.31,1.31,0,0,1-1.3-1.31h0a1.31,1.31,0,0,1,.85-1.21l.18-5.86-.59-26"/><path class="cls-38" d="M379.62,425.92c.3-.94,2.37-8.06,2.37-8.06,7.44,3,17.07.72,17.07.72l1.71,10.16a.6.6,0,0,1-.61.6l-20.31-.17C379.19,429.17,379.61,426,379.62,425.92Z"/><line class="cls-39" x1="400.6" y1="427.15" x2="379.48" y2="426.98"/><path class="cls-39" d="M380.22,423.93a21.4,21.4,0,0,1,10.55-2.48,16.16,16.16,0,0,1,9.2,3.19"/><path class="cls-40" d="M375.87,305.17l3.72,109.41h21.54l-1.79-88.66s2.42-10.18-1.36-19.27"/><line class="cls-41" x1="378.02" y1="305.17" x2="381.74" y2="414.58"/><path class="cls-37" d="M373.26,393.87l-1.65,25,.2,7.52-29.51-.15a1.29,1.29,0,0,1-1.29-1.31h0a1.29,1.29,0,0,1,.84-1.21l12.72-5.86.49-26"/><path class="cls-38" d="M339.71,425.92a4,4,0,0,1,1.42-2.24l13.49-5.82c7.44,3,17.07.72,17.07.72l1.72,10.16a.61.61,0,0,1-.62.6l-32.85-.17C339.28,429.17,339.7,426,339.71,425.92Z"/><path class="cls-39" d="M351.7,418.45a15.37,15.37,0,0,1,1.9,3.19"/><path class="cls-39" d="M350,419.46a13.87,13.87,0,0,1,1.57,2.72"/><path class="cls-39" d="M348.57,420.2a20.14,20.14,0,0,1,1.46,2.5"/><line class="cls-39" x1="373.23" y1="427.15" x2="339.57" y2="426.98"/><path class="cls-39" d="M372.3,422.18s-7.91.16-8.59,4.92"/><path class="cls-39" d="M343.89,422.49A25.41,25.41,0,0,1,346.5,427"/><path class="cls-40" d="M355.81,302.76c-2.92,31.37-3.56,111.82-3.56,111.82h23c-.6-11.35,4.75-89.16,4.75-89.16s6.07-7.88,5.77-22.66"/><path class="cls-41" d="M359,302.76c-2.92,31.37-3.56,111.82-3.56,111.82"/><path class="cls-41" d="M367,313.76s7.91.75,10.1.7"/><path class="cls-41" d="M399.9,314.46s-5.46.41-8.67.37"/><path class="cls-41" d="M377.83,362.7l2-34.24a12.32,12.32,0,0,1,1.48-5.21,31.64,31.64,0,0,0,4-12.71"/><path class="cls-37" d="M370.58,222.05c-1.72,4.19-4.93,13.57-1.11,15.63s7.44.54,10.95-2.51a8.32,8.32,0,0,0,1.42-11.64C379.22,219.9,372.31,217.86,370.58,222.05Z"/><polyline class="cls-37" points="372.45 235.08 370.88 245.29 383.63 244.02 383.19 231.12"/><path class="cls-42" d="M378,217.42c-3-1.6-5.26-.2-7.17,1.29a3.52,3.52,0,0,0-1.26,1.62,1.73,1.73,0,0,0,.45,1.85c.37.33.94.54,1.07,1a1.3,1.3,0,0,1,0,.52,15.85,15.85,0,0,0,0,3.77.63.63,0,0,0,.21.48c.36.26.85-.17,1.05-.54s.65-.83,1-.59a.65.65,0,0,1,.26.55c.34,3.16.38,6.37,1.37,9.42a1.15,1.15,0,0,0,.33.56,1.44,1.44,0,0,0,.8.23q1.9.15,3.81.12a5.87,5.87,0,0,0,3.84-1.06c1.08-1,1.29-2.54,1.78-3.83,1.2-3.15,2.42-6,1.85-9.41-.41-2.47-1.75-4.91-4.47-5.51a28.76,28.76,0,0,0-5-.45"/><path class="cls-30" d="M357.91,257.92c-.32,1.16-2.23,31.59-2.87,48.73,11.92,2.05,32.53,2.6,44,0a535.77,535.77,0,0,0-3-59.12s-7.11-5.85-10.93-6.56c-4.34,2.42-12.63,3.05-12.63,3.05Z"/><path class="cls-37" d="M354.12,259s-7.74,11.73-10.71,12.4c-8.45,1.92-29.64,3-29.64,3l.16,11.1s23.32,4.64,38.55-2.25c8.9-4,17-23.49,17-23.49"/><path class="cls-37" d="M390.11,236.1a147.39,147.39,0,0,0,7.74-17.7,168.08,168.08,0,0,0,5.07-21.24l11.32,1.58s-1.36,15.46-3.94,25.34A286.83,286.83,0,0,1,401,252.21"/><path class="cls-37" d="M401.8,204.1c.7-4.83,3.47-23.27,4.3-23.51s.62,4.15,1.27,3.83,1.45-7,2.35-7.06c1.22,0,0,6.82,0,6.82s.76-2.23,1.82-1.94c.75.2.54,3,.54,3s.32-1.65,1.1-1.42.57,1.95.57,1.95.75-1.22,1.32-.73c1,.82-.79,12.14-1.86,22.7"/><path class="cls-30" d="M372.45,244s-10.68-.25-14.72,6.24-9.51,16.4-9.51,16.4l14.9,7.35,7.13-12.64"/><path class="cls-30" d="M377.05,243.55a16.62,16.62,0,0,0,8.67-3c2.22-1.59,2.94-3.89,5.68-7.57,6.63,0,14,8.78,14,8.78s-7,19.59-8.83,27"/><line class="cls-43" x1="363.12" y1="274.01" x2="369.05" y2="263.51"/><line class="cls-43" x1="397.37" y1="265.83" x2="396.65" y2="253.76"/><path class="cls-37" d="M325.94,273.57c-6.46.44-19.07.12-19.45.91s4,1.32,3.55,1.9-7.19.22-7.36,1.1c-.23,1.2,6.71,1.21,6.71,1.21s-7.49.64-7.39,1.74c.07.78,8,.76,8,.76s-6.84.32-6.75,1.12,7.52,1.28,7.52,1.28-6,.05-5.63.7c.64,1.09,7.94,1.43,17.61,2.42"/><path class="cls-37" d="M583.8,234.3c-9.92-2.77-12.28-2.52-23.65-7.45-8.39-3.64-24.42-16-24.42-16l7.8-6.7a89.68,89.68,0,0,0,21,10.52c8.25,2.91,16.55,4.87,16.55,4.87"/><path class="cls-37" d="M552.54,210.08c-4.18-2.85-16.9-11.28-17.52-10.92s1.16,1.9.6,2.1-5-3.16-5.47-2.64c-.71.7,4,3.9,4,3.9s-5.3-3.25-5.73-2.46c-.31.56,3.62,3.22,5,4.42-1.66-1.11-4.56-2.61-4.87-2s2.34,2.45,4.28,4c-1.3-.85-3.76-2.26-4.07-1.73s4,4,9.78,8.2"/><path class="cls-44" d="M599.83,228s1.31-1.38-3.77-4.1c-3.74-2-11.4-4.22-19.62-6.13l-1.7,15.75,12.86,4.7"/><path class="cls-37" d="M594.45,371.71,596,396.53l.2,7.47-29.3-.15a1.3,1.3,0,0,1-1.29-1.3h0a1.29,1.29,0,0,1,.83-1.21l12.64-5.81-2.72-25.77"/><path class="cls-45" d="M564.35,403.54a4,4,0,0,1,1.4-2.24l13.4-5.77c7.38,3,16.94.71,16.94.71l1.71,10.09a.61.61,0,0,1-.61.6l-32.62-.17C563.91,406.76,564.34,403.57,564.35,403.54Z"/><path class="cls-46" d="M576.25,396.11a16.39,16.39,0,0,1,1.89,3.17"/><path class="cls-46" d="M574.56,397.12a13.6,13.6,0,0,1,1.55,2.7"/><path class="cls-46" d="M573.14,397.86a21,21,0,0,1,1.45,2.47"/><line class="cls-46" x1="597.63" y1="404.75" x2="564.21" y2="404.58"/><path class="cls-46" d="M596.7,399.82s-7.85.16-8.53,4.89"/><path class="cls-46" d="M568.5,400.12a25.67,25.67,0,0,1,2.59,4.5"/><path class="cls-29" d="M579.9,274.58l-.31,3.31a218.66,218.66,0,0,0-6.72,52.43c0,22.7,3.1,60.2,3.1,60.2L598,390s-3-50-2.59-62.19S598.93,294,598.93,294s9.12-8.17,5.2-22.1"/><path class="cls-47" d="M594,390s-2-50-1.57-62.19S594.88,294,594.88,294"/><polygon class="cls-33" points="574.97 392.76 599.1 392.76 598.77 386.88 574.65 386.88 574.97 392.76"/><path class="cls-37" d="M630.16,347.77l20.62,14.65,5.35,4.68-15.42,23.59a1.3,1.3,0,0,1-1.8.35h0a1.3,1.3,0,0,1-.54-1.36l2.19-13.74L618.5,361.72"/><path class="cls-45" d="M639,392.65a4,4,0,0,1-1.08-2.4l2.64-14.35c6.59-4.48,10-13.7,10-13.7l8.15,5.37a.6.6,0,0,1,.16.84l-17.06,25.85C641.46,394.8,639,392.68,639,392.65Z"/><path class="cls-46" d="M639.45,378.63a16.3,16.3,0,0,1,3.69.19"/><path class="cls-46" d="M639.35,380.6a13.78,13.78,0,0,1,3.11.2"/><path class="cls-46" d="M639.18,382.19a21.1,21.1,0,0,1,2.86.16"/><line class="cls-46" x1="657.41" y1="366.7" x2="639.81" y2="393.35"/><path class="cls-46" d="M653.59,364.2s-3.93,6.1-.37,9.29"/><path class="cls-46" d="M638.48,387.31a25.63,25.63,0,0,1,5.18.34"/><path class="cls-29" d="M588,275.74s-2.27,41.7,3.53,60.08c6.24,19.79,43.29,38.75,43.29,38.75L646,358.16s-27.23-19.9-30.48-27.26c-2.27-5.14-1.95-27.93-1.24-30.68,1.67-6.49,2.51-15.82-.29-22.55l-1.23-3.39"/><path class="cls-47" d="M643.58,360.91s-26.06-18.08-29.81-27.3c-2.76-6.8-3.26-29.24-2.56-32,1.67-6.5,2.56-17.23-.15-23.28"/><path class="cls-47" d="M587.93,278.78s-2.18,37.29,2.91,54.18a80,80,0,0,0,4.89,11.51"/><polygon class="cls-33" points="636 376.03 648.38 358.86 643.78 355.19 631.06 372.83 636 376.03"/><path class="cls-47" d="M582.23,278.68s1.21,3.63-4.05,4.54"/><path class="cls-47" d="M579.59,277.89s12.76,5.05,34.42-.22"/><path class="cls-47" d="M585.37,278.69s-.9,7.9.26,8.63a20.56,20.56,0,0,0,2.17,1.19"/><path class="cls-47" d="M603.46,280s1.95,4.9,9,4.83"/><path class="cls-47" d="M585.75,279.12l-1.79-.2a.47.47,0,0,1-.39-.52c0-.7.09-2,.13-2.73a.46.46,0,0,1,.44-.47h1.26"/><path class="cls-48" d="M585.75,276.79a.55.55,0,0,1-.55.55.55.55,0,0,1-.54-.55.54.54,0,0,1,.54-.54A.55.55,0,0,1,585.75,276.79Z"/><line class="cls-47" x1="593.62" y1="279.42" x2="593.62" y2="274.7"/><line class="cls-47" x1="606.13" y1="279.48" x2="605.41" y2="275.54"/><path class="cls-44" d="M586.25,227.66c-4.4,7.37-7.54,10.57-8.07,13-1.27,5.92,2.73,10.79,2.73,10.79l-1,23.11a73.35,73.35,0,0,0,33.1.23c.75-8.34,6-27.17,6-32.56,0-13.6-8.11-16.28-12.47-18l-10.51-.42Z"/><path class="cls-49" d="M608.59,225s-1.8,2.89-7.63,2.15-6.44-3.13-6.44-3.13"/><path class="cls-37" d="M615.54,247.89s-10.33,11.68-21.16,18.55c-8.92,5.67-36.06,7.84-36.06,7.84L555,262.92s17.57-3.53,28.48-7.67c9.46-3.59,17.34-15.69,17.34-15.69"/><path class="cls-37" d="M568.11,259.89c-10.89,3.08-25.53,4.6-25.8,5.37s2.45.79,2.11,1.38-6.71,1-6.77,1.83c-.08,1.15,6.42.4,6.42.4s-7.08,1.18-6.87,2.19c.16.72,5.6.07,7.71.08-2.29.28-5.95,1.17-5.77,1.91s3.89.38,6.75.25c-1.78.25-5,.87-4.86,1.56s14,.23,24-1.27"/><polyline class="cls-44" points="617.63 246.95 608.91 257.55 595.08 246.41 603.05 236.34"/><line class="cls-49" x1="595.08" y1="246.41" x2="601.89" y2="237.81"/><line class="cls-49" x1="608.91" y1="257.55" x2="615.61" y2="249.95"/><path class="cls-49" d="M582.07,235.44s2.61-4.2,2.61-5.1"/><path class="cls-50" d="M613.07,203.23a4.83,4.83,0,0,0,4.8,1c1.7-.7,3.08-2.1,4.77-2.87a8,8,0,0,1,6.75.23c1.69.91,2.89,2.51,4.47,3.61,2.46,1.71,5.37,2.15,7.78.23s5.79-2.6,8.22-.27l-3.11,10.56a4.21,4.21,0,0,0-4.45,0,14,14,0,0,1-3.58,1.86c-4.27,1.43-8.19-1.3-10.74-4.58-.82-1.06-1.59-2.28-2.85-2.74-1.72-.63-3.55-.26-5.33-.5-2.72-.38-4.44-2.36-6-4.41"/><path class="cls-51" d="M614.31,204.25,614.1,203a5.35,5.35,0,0,1-.09-1.69,1.79,1.79,0,0,1,.92-1.35.58.58,0,0,1,.48,0,.6.6,0,0,1,.25.55,3.64,3.64,0,0,1-.17,1c-.27,1-.59,2.06-1,3.07"/><path class="cls-51" d="M614.71,204.26a5.44,5.44,0,0,1,2.46-2.33,1.57,1.57,0,0,1,1.23-.16.37.37,0,0,1,.27.48,2.19,2.19,0,0,1-1.07,1.39,6,6,0,0,1-2.56,1,4.9,4.9,0,0,1,2.64,4.8"/><path class="cls-37" d="M598.1,216.12l-2,7.73s1.23,1.67,5.46,1.76c4,.09,5.05-1.34,5.05-1.34l1.4-11.53"/><path class="cls-37" d="M598.7,203.52c-4.07,6.26-6.09,11.91-1.73,14.24,4.59,2.46,10.14.93,11.7-5C610.31,206.57,601.38,200.12,598.7,203.52Z"/><path class="cls-50" d="M615.6,210.18c.71-3.91-1.66-9.12-5.82-10.05-6.25-3.12-9.37-1.18-12.53,1.64-.35.31-.71.8-.48,1.21a1,1,0,0,0,.45.37,6,6,0,0,0,3.09.69,2.47,2.47,0,0,0,1.69,2,6.43,6.43,0,0,0,2.73.23,1.62,1.62,0,0,0,.46,1.77,9.46,9.46,0,0,1,1.36,1.4,5.15,5.15,0,0,1,.22,3.19,12.48,12.48,0,0,0,.28,4.13,1.05,1.05,0,0,0,.45.75,1,1,0,0,0,.6,0A9.34,9.34,0,0,0,615.6,210.18Z"/><path class="cls-52" d="M597.51,218.5a8.71,8.71,0,0,0,6.65-.43"/><polygon class="cls-53" points="608.17 212.09 608.17 212.08 608.17 212.09 608.17 212.09"/><path class="cls-54" d="M599.83,209s-2.26,1.94-2.31,2.65,1.51,1.26,1.51,1.26"/><path class="cls-19" d="M597.05,213.17l4.15,1.88a2.89,2.89,0,0,1-3.69.81C595.93,215,597.05,213.17,597.05,213.17Z"/><path class="cls-50" d="M598.27,207.59c-.15.18-.29.37-.42.56-.27.43.42.84.68.4a5.12,5.12,0,0,0,.31-.62c.14-.32-.35-.58-.57-.34Z"/><path class="cls-55" d="M600,207.08a1.17,1.17,0,0,0-1.57-.67"/><path class="cls-50" d="M602.86,210.2a5.72,5.72,0,0,0-.39.57c-.25.45.45.85.68.4a5.24,5.24,0,0,0,.29-.64c.11-.31-.37-.61-.58-.33Z"/><path class="cls-55" d="M603.16,208.55s1.17-.05,1.9,1.53"/><path class="cls-37" d="M605.74,212.82a1.31,1.31,0,0,1,1.2-.63c1.21,0,1.38,1.6.87,2.6a3.08,3.08,0,0,1-1.4,1.41c-.85.45-1.7.31-1.82-.69"/><path class="cls-37" d="M253.41,390l1.83,27.58-.23,8.3,31.54-.16a1.44,1.44,0,0,0,1.43-1.45h0a1.43,1.43,0,0,0-.93-1.34l-13-6.46-.53-28.65"/><path class="cls-56" d="M290.43,425.39a5.71,5.71,0,0,0-2.58-2.48L274,416.49c-8.21,3.33-18.83.79-18.83.79l-1.89,11.21a.67.67,0,0,0,.67.67l35.23-.19C291.25,429,290.44,425.42,290.43,425.39Z"/><line class="cls-57" x1="276.18" y1="417.13" x2="274.44" y2="420.66"/><path class="cls-57" d="M278.06,418.26a15.14,15.14,0,0,0-1.73,3"/><path class="cls-57" d="M279.64,419.07a22.28,22.28,0,0,0-1.62,2.75"/><line class="cls-57" x1="253.45" y1="426.74" x2="290.59" y2="426.55"/><path class="cls-57" d="M284.8,421.59a27.92,27.92,0,0,0-2.88,5"/><path class="cls-57" d="M254.48,421.25s8.72.18,9.47,5.44"/><path class="cls-38" d="M243.86,302.76a48.08,48.08,0,0,0,0,20.7l8,89H277s-3-77.3-4.84-109.71"/><path class="cls-37" d="M227.23,390.2l-.55,27.58-.22,8.31,32.56-.17a1.43,1.43,0,0,0,1.43-1.45h0a1.42,1.42,0,0,0-.93-1.33l-14-6.46L247.32,388"/><path class="cls-58" d="M261.88,425.57a4.47,4.47,0,0,0-1.56-2.48l-14.89-6.41c-8.21,3.32-18.83.78-18.83.78l-1.9,11.21a.68.68,0,0,0,.68.67l36.25-.18C262.36,429.15,261.89,425.6,261.88,425.57Z"/><path class="cls-59" d="M248.65,417.32a17.9,17.9,0,0,0-2.1,3.52"/><path class="cls-59" d="M250.53,418.44a15.48,15.48,0,0,0-1.73,3"/><path class="cls-59" d="M252.11,419.26a22.28,22.28,0,0,0-1.62,2.75"/><line class="cls-59" x1="224.89" y1="426.92" x2="262.03" y2="426.73"/><path class="cls-59" d="M225.92,421.44s8.73.18,9.48,5.43"/><path class="cls-59" d="M257.27,421.78a27.73,27.73,0,0,0-2.88,5"/><path class="cls-38" d="M227.44,302.76a48.15,48.15,0,0,0-.25,19.56,8,8,0,0,1,.16,2.29l-2.24,87.86h25.13s6.21-81.68,5.53-109.71"/><path class="cls-60" d="M230.51,302.76a48.26,48.26,0,0,0-.24,19.56,8.78,8.78,0,0,1,.16,2.29l-2.25,87.86"/><path class="cls-60" d="M251.3,404c2.3-36.31,5-78.64,4.47-101.26"/><path class="cls-60" d="M229.46,310.54c6.22,0,12-1.15,12.69-7.78"/><path class="cls-60" d="M255.51,316s1.9.25,2.37-.77c.94-2.08.94-8.13.94-12.46"/><path class="cls-60" d="M265.55,302.22c.11.33.49,5.94,7,5.89"/><line class="cls-60" x1="225.22" y1="407.97" x2="250.53" y2="407.97"/><line class="cls-60" x1="251.58" y1="407.97" x2="276.85" y2="407.97"/><path class="cls-58" d="M245.49,240.28c-19.32,14.07-18.05,43.14-18.05,62.48,7,2.33,39.64,2,45.51,0-.39-9.4-2-40.2-4.65-49.71-1.53-3.56-11-12.08-11-12.08Z"/><rect class="cls-19" x="236.04" y="275.48" width="25.96" height="34.36" transform="translate(170.98 -83.6) rotate(28.68)"/><line class="cls-61" x1="250.25" y1="276.57" x2="261.69" y2="282.83"/><line class="cls-61" x1="244.84" y1="278.28" x2="263.37" y2="288.42"/><line class="cls-61" x1="242.97" y1="281.7" x2="261.5" y2="291.83"/><line class="cls-61" x1="241.1" y1="285.12" x2="259.63" y2="295.25"/><line class="cls-61" x1="239.23" y1="288.54" x2="257.76" y2="298.67"/><line class="cls-61" x1="237.36" y1="291.95" x2="255.89" y2="302.09"/><line class="cls-61" x1="235.49" y1="295.37" x2="254.02" y2="305.51"/><line class="cls-61" x1="233.63" y1="298.79" x2="252.15" y2="308.92"/><path class="cls-37" d="M237.85,298.85l-12.3-6c2.27,1.33,22.72,11.33,24.41,12.19a24.74,24.74,0,0,0,5.64,2.05,2,2,0,0,0,1.16,0,.74.74,0,0,0,.49-.92,1.29,1.29,0,0,0,1.31-.63,1.31,1.31,0,0,0-.17-1.45,3.25,3.25,0,0,0,1.36-.72,1.12,1.12,0,0,0,.18-1.42c-.06-.08-.14-.16-.13-.27a.31.31,0,0,1,.12-.16c.33-.28.75-.44,1.09-.71a1,1,0,0,0,.44-1.13,1.32,1.32,0,0,0-.45-.52l-3.38-2.74c-.18-.15-.38-.43-.21-.6a.47.47,0,0,1,.37-.07,12.64,12.64,0,0,0,2.46,0c.22,0,.5-.09.55-.31a.41.41,0,0,0-.07-.32,2.41,2.41,0,0,0-1-.86c-4.51-2.5-13.64-7.37-13.64-7.37"/><path class="cls-37" d="M220.65,256.16s-10.79,21.17-7.64,27.26c3.63,7,29.72,17.5,29.72,17.5L249,288.65S230.51,278.54,230.51,275c0-3.09,5.52-12.5,5.52-12.5"/><path class="cls-37" d="M275,249.54s9.25,11,11.88,11.52,16.86-9.67,16.86-9.67l6.7,9.93s-18.95,16.8-25.74,16.13c-6.64-.65-20.71-15.13-20.71-15.13"/><path class="cls-58" d="M245.49,240.28s-12.12-2.9-19.11,5.78a58.42,58.42,0,0,0-9.74,18.42L232.9,272l7.45-14.74"/><path class="cls-58" d="M257.33,241s6.49.6,10.72,2.62,16.66,15.54,16.66,15.54l-12.78,12.23-9.39-9.84"/><path class="cls-37" d="M298.8,254.91c4-2.85,19.17-13.65,19.92-13.21s-2.56,3.32-1.88,3.56,6.08-3.84,6.72-3.2c.86.87-4.9,4.75-4.9,4.75s6.58-3.65,7.11-2.68c.37.68-6.22,5.1-6.22,5.1s5.86-3.56,6.23-2.84-5.52,5.25-5.52,5.25,5-3.31,5.06-2.56c.07,1.27-13.08,10.53-20.55,16.75"/><path class="cls-52" d="M315.82,246c-1.12,2.2-.51,4.17-2.6,6.26"/><line class="cls-59" x1="232.9" y1="272.02" x2="239.16" y2="259.65"/><line class="cls-59" x1="270.76" y1="270.13" x2="268.74" y2="254.84"/><path class="cls-37" d="M247.14,231.92l-1.65,8.36c1.25,1.44,7.29,4.56,11.84.69l.13-5.81Z"/><path class="cls-37" d="M259.21,222.39s3.76,10.42.42,13.81c-1.74,1.76-6.88,2.07-9.07.32-1.62-1.29-4-9.31-3.1-10.71C251,220.44,259.21,222.39,259.21,222.39Z"/><path class="cls-54" d="M257,227.3s2,2.47,1.94,3.22-1.83,1-1.83,1"/><path class="cls-19" d="M259.24,232.25l-4.71,1.2a3.1,3.1,0,0,0,3.73,1.54C260.07,234.39,259.24,232.25,259.24,232.25Z"/><path class="cls-50" d="M258.63,226.46c.05.21.12.41.19.62.19.47,1,.25.76-.21a4.12,4.12,0,0,0-.32-.67.34.34,0,0,0-.63.26Z"/><path class="cls-55" d="M258,225.3a1.25,1.25,0,0,1,1.77-.41"/><path class="cls-50" d="M253.06,228.34a4.85,4.85,0,0,0,.16.63c.16.48.93.26.76-.21a5.28,5.28,0,0,0-.29-.69c-.19-.37-.69-.09-.63.27Z"/><path class="cls-55" d="M253.69,226.25a2.35,2.35,0,0,0-2.28,1.25"/><path class="cls-42" d="M242.62,229.93a11.07,11.07,0,0,1-.49-8.8,9.18,9.18,0,0,1,3.36-4.22,15.23,15.23,0,0,1,6.36-1.81,12.4,12.4,0,0,1,6.56,1.29,5.79,5.79,0,0,1,3.37,5.4,2.07,2.07,0,0,1-.71,1.51,2,2,0,0,1-1.1.34,5.63,5.63,0,0,1-3.77-1.49,2.08,2.08,0,0,1-1.26,1.55c-.79.21-1.54-.41-2.13-1a4.51,4.51,0,0,1-1.72,2.14,2.37,2.37,0,0,1-2.33-.14c.06,0,.06,2.06.07,2.28,0,.85-.58,1.59-.73,2.43a33.17,33.17,0,0,1-1.43,5.65,11.84,11.84,0,0,0-2.25-2.55A10.14,10.14,0,0,1,242.62,229.93Z"/><path class="cls-52" d="M257.06,237.77a14.36,14.36,0,0,1-6.88-1.67"/><path class="cls-62" d="M255.92,228.25a2.87,2.87,0,1,1-2.87-2.87A2.88,2.88,0,0,1,255.92,228.25Z"/><path class="cls-62" d="M261.44,225.13c.51,1.45,0,2.94-1.09,3.32s-2.42-.46-2.93-1.91,0-2.93,1.1-3.32S260.94,223.69,261.44,225.13Z"/><line class="cls-62" x1="257.33" y1="226.37" x2="255.61" y2="226.97"/><line class="cls-62" x1="250.18" y1="228.55" x2="246.75" y2="230.36"/><path class="cls-37" d="M248.19,230.34c-1-1.62-2-1.49-2.57-.74-.82,1,.3,3.42.9,3.87,1.21.93,2.27,1,2.5-.07"/><path class="cls-37" d="M177.8,181.58,174.41,188a13.69,13.69,0,0,1-5.5-1.58,8.56,8.56,0,0,1-4.09-3.71l5.73-7.58"/><path class="cls-37" d="M185,169.43c3.15,1.85-2.06,13.61-4.9,14.35s-8.48-4.81-10.17-9.52,3.73-7.27,6.92-8.23S185,169.43,185,169.43Z"/><path class="cls-50" d="M182.52,175a6.22,6.22,0,0,0-.32.56c-.22.46.47.86.68.4a5.2,5.2,0,0,0,.27-.69.35.35,0,0,0-.63-.27Z"/><path class="cls-55" d="M184.41,174a2.36,2.36,0,0,0-2.51-.68"/><path class="cls-19" d="M179.89,179.7l2,1.43s-.79,1.51-1.5.92S179.89,179.7,179.89,179.7Z"/><path class="cls-63" d="M187.83,172a30.86,30.86,0,0,1-4.09-1.87,3.75,3.75,0,0,0-3,3.19c0,.35,0,.82-.39.87s-.43-.2-.5-.43a4.15,4.15,0,0,0-.15-.7,1,1,0,0,0-1.23-.47,1.76,1.76,0,0,0-1,1c-.48,1.14-.9,2.53.19,3.49a2,2,0,0,1,.48.47c.23.43,0,1-.33,1.36a5.43,5.43,0,0,1-4.73,2.65c-1.8,0-4.79-2.38-5-3.56,0-.11-1.74-7.38,1.46-12a9,9,0,0,1,7.88-4,9.11,9.11,0,0,1,4.59,2.05C187.3,165,188.43,170.43,187.83,172Z"/><path class="cls-37" d="M184.79,176.29s.47,3.53-.23,3.91-2.16-.62-2.16-.62"/><rect class="cls-64" x="90.1" y="283.82" width="22.17" height="0.99" transform="translate(385.34 182.67) rotate(89.91)"/><path class="cls-65" d="M109.86,276.36l-.46-1.91s-2.51-.73-4.25-1a20,20,0,0,0-3.48-.21l0,22.17s1.92-.59,5-5.88a11.5,11.5,0,0,1,2.61-3.16Z"/><line class="cls-66" x1="107.63" y1="288.14" x2="106.25" y2="287.1"/><line class="cls-66" x1="106.77" y1="289.43" x2="105.39" y2="288.55"/><line class="cls-66" x1="106.03" y1="290.64" x2="104.59" y2="289.84"/><path class="cls-37" d="M120.45,275.25l-11-.8s-1.14,1-1.13,4.79a27.27,27.27,0,0,0,1,7.12L122.11,288"/><path class="cls-45" d="M135.16,230.51c-3.51,9.39,2.22,23,2.22,23l3.61,23-29.6-2.07.65,17.8s30.73,3.22,38.16,3.22,10.31-1.66,12.49-6c3.25-6.49-1.42-42.37-1.42-43l-5.1-23"/><line class="cls-67" x1="115.19" y1="274.87" x2="116.12" y2="292.64"/><rect class="cls-64" x="181.41" y="294.24" width="22.17" height="0.99"/><path class="cls-65" d="M184.57,286.05l-1.92.45a42.5,42.5,0,0,0-1,4.25,20.53,20.53,0,0,0-.22,3.48h22.17s-.58-1.92-5.87-5a11.59,11.59,0,0,1-3.14-2.61Z"/><line class="cls-66" x1="196.34" y1="288.3" x2="195.29" y2="289.68"/><line class="cls-66" x1="197.62" y1="289.16" x2="196.75" y2="290.54"/><line class="cls-66" x1="198.83" y1="289.9" x2="198.03" y2="291.34"/><path class="cls-37" d="M184.6,278.08l-1.95,8.42s1,1.14,4.79,1.14a27.39,27.39,0,0,0,7.13-1l3.05-11.36"/><path class="cls-45" d="M145.1,235.59s-3.25,16.62,13.26,20.19c7.38,1.6,28.39,2.12,28.39,2.12l-4.7,25.69h18s3.88-19.35,5.05-32.3c.78-8.61-4-13.32-9.89-13.32s-23.61-1.89-23.61-1.89l-3-3.74"/><path class="cls-67" d="M162.06,256.38s-13.89,0-17.22-15.54"/><path class="cls-67" d="M152.18,239.38a37.81,37.81,0,0,0,8.65.4"/><path class="cls-67" d="M134,237.17a27.17,27.17,0,0,0,6.11,1"/><line class="cls-67" x1="182.54" y1="280.24" x2="200.74" y2="280.24"/><polygon class="cls-68" points="215.01 202.44 215.88 203.93 222.26 198.78 221.17 197.47 215.01 202.44"/><path class="cls-38" d="M221.55,199.09a6.22,6.22,0,0,1-.28-8.79h0a6.22,6.22,0,1,1,.28,8.79Zm.68-7.89h0a4.9,4.9,0,0,0-1.32,3.51,4.9,4.9,0,0,0,8.47,3.19,4.9,4.9,0,0,0-7.15-6.7Z"/><path class="cls-38" d="M210.89,206.86h0a1.23,1.23,0,0,0,1.76.15l7.8-6.3-1.55-2-7.8,6.3A1.46,1.46,0,0,0,210.89,206.86Z"/><path class="cls-37" d="M201.8,205.61l6.88-2s4-3.13,5.51-3.2c1.68-.07,2,.49,2,.49l-.48.39a1.17,1.17,0,0,0-.09,1.73l.06.06a1.24,1.24,0,0,0,1.65.1l1.07-.87s1.71.1.43,1.61c.76,0,1.36.93.14,1.92.5.2.53,1-.33,1.93.59.58-.15,1.52-.84,1.83-1.3.59-14.12,4.19-14.12,4.19"/><path class="cls-69" d="M174.62,187.4c9.09,12.57,4.21,16.65-2.32,48.71a193.73,193.73,0,0,1-38.51-3.77,244.84,244.84,0,0,1,14.82-35.55c4.59-8.93,12.22-13.38,16.54-14.52"/><path class="cls-69" d="M160.83,201.54s11.81,19.73,18.49,20.71c10.59,1.55,29.9-5.26,29.9-5.26l-2-13.14S186,206.75,185,206.22c-3-1.71-10.41-18.82-10.41-18.82"/><path class="cls-70" d="M175.79,220.49A62.25,62.25,0,0,1,162.06,203"/><line class="cls-71" x1="469.5" y1="175.76" x2="492.83" y2="395.93"/><line class="cls-71" x1="523.32" y1="175.76" x2="546.65" y2="395.93"/><line class="cls-71" x1="470.49" y1="185.16" x2="524.31" y2="185.16"/><line class="cls-71" x1="472.39" y1="203.06" x2="526.21" y2="203.06"/><line class="cls-71" x1="474.29" y1="220.96" x2="528.11" y2="220.96"/><line class="cls-71" x1="476.19" y1="238.86" x2="530" y2="238.86"/><line class="cls-71" x1="478.08" y1="256.75" x2="531.9" y2="256.75"/><line class="cls-71" x1="479.98" y1="274.65" x2="533.8" y2="274.65"/><line class="cls-71" x1="481.88" y1="292.55" x2="535.69" y2="292.55"/><line class="cls-71" x1="483.77" y1="310.45" x2="537.59" y2="310.45"/><line class="cls-71" x1="485.67" y1="328.35" x2="539.49" y2="328.35"/><line class="cls-71" x1="487.57" y1="346.25" x2="541.38" y2="346.25"/><line class="cls-71" x1="489.46" y1="364.15" x2="543.28" y2="364.15"/><line class="cls-71" x1="491.36" y1="382.05" x2="545.18" y2="382.05"/><path class="cls-37" d="M532.71,143.77l-.37,15.75s-7.86,5.06-13.22-2.48l1.79-7.66Z"/><path class="cls-37" d="M522.91,134.07s-7.92,9.72-5.34,14.09c1.33,2.28,3.75,3.57,6.47,2.34,2-.92,10.38-7.28,9.8-9C531.61,135.06,522.91,134.07,522.91,134.07Z"/><path class="cls-37" d="M519.35,139.75s-2.47,1.55-2.77,2.89c-.13.59,1.87,1.13,1.87,1.13"/><path class="cls-19" d="M518.29,144.91l3.68.27C521.84,146.57,518.44,149.34,518.29,144.91Z"/><path class="cls-50" d="M521.57,140a3.06,3.06,0,0,0-.39.79c0,.18.13.41.34.33a1,1,0,0,0,.59-1,.29.29,0,0,0-.54-.14Z"/><path class="cls-55" d="M523.94,139.89a2.37,2.37,0,0,0-1.47-1.38,1.16,1.16,0,0,0-.88,0"/><path class="cls-42" d="M537,136.81a9,9,0,0,1-1.29-1.17c-.89-1.15-.69-2.86-1.72-3.89s-2.56-.92-3.82-1.47c-.77-.34-1.41-.9-2.15-1.29a13.08,13.08,0,0,0-4-1.31,4.66,4.66,0,0,0-3.75,1.24,2.4,2.4,0,0,0-.53,2.94c.51.75,1.6,1.08,1.93,1.92s-.07,1.49.13,2.21c.38,1.37,2.37,1.67,3.19,2.85s.22,2.79.73,4.12c.37.95,1.28,1.66,1.57,2.63.19.63.1,1.31.29,1.93.59,2,3.16,3.22,5.13,3.21,1,0,1.19-.44,1.71-1.21a25.87,25.87,0,0,0,3-5.55c.69-1.89,1.52-5.16-.1-6.87A4,4,0,0,0,537,136.81Z"/><path class="cls-37" d="M525.32,143.57c.81-2,2.56-.7,2.95.14.52,1.13-1.09,3.12-1.75,3.4-1.35.58-2.35.37-2.31-.66"/><path class="cls-52" d="M520.67,151a13.67,13.67,0,0,0,4.48-1.1"/><path class="cls-72" d="M547.42,301.79l6.47,26.81,1.68,8.12L525.86,342a1.39,1.39,0,0,1-1.56-1.18h0a1.44,1.44,0,0,1,.61-1.47l11.65-8.68L528.73,303"/><path class="cls-73" d="M523.2,342.09a4.42,4.42,0,0,1,1-2.69l12.43-8.78c8.07,1.91,17.3-2.35,17.3-2.35l3.72,10.7a.66.66,0,0,1-.5.77l-33.07,5.83C523.39,345.69,523.19,342.13,523.2,342.09Z"/><path class="cls-74" d="M533.79,331.79a18.16,18.16,0,0,1,2.54,3.11"/><path class="cls-74" d="M532.28,333.2a15.43,15.43,0,0,1,2.1,2.66"/><path class="cls-74" d="M531,334.27a23.13,23.13,0,0,1,2,2.43"/><line class="cls-74" x1="557.14" y1="337.28" x2="523.26" y2="343.26"/><path class="cls-74" d="M555.23,332.06s-7.92,1.63-7.67,6.92"/><path class="cls-74" d="M526.73,337.6a28.61,28.61,0,0,1,3.51,4.43"/><path class="cls-73" d="M519.23,223.26s1.58,31.08,3.65,54.35a264.24,264.24,0,0,0,9.18,49l22.53-3.32s-7.42-34.87-8.23-45.68c-1.14-15.32-.29-37.3-.29-37.3a27.89,27.89,0,0,0,.39-20.18"/><path class="cls-75" d="M523.07,222.93s0,36.62,3.63,60.41c3.14,20.83,8.52,42.77,8.52,42.77"/><line class="cls-75" x1="530.95" y1="322.69" x2="553.17" y2="318.51"/><path class="cls-37" d="M522.25,306.85l1.6,27.54.21,8.29-30.16-.16a1.4,1.4,0,0,1-1.33-1.45h0a1.45,1.45,0,0,1,.86-1.33l13-6.45-2.8-28.61"/><path class="cls-45" d="M491.25,342.17a4.52,4.52,0,0,1,1.45-2.48l13.79-6.4c7.6,3.32,17.44.78,17.44.78l1.76,11.2a.63.63,0,0,1-.63.66l-33.57-.18C490.81,345.74,491.24,342.2,491.25,342.17Z"/><path class="cls-76" d="M503.51,333.93a18.24,18.24,0,0,1,1.94,3.52"/><path class="cls-76" d="M501.77,335.05a15.69,15.69,0,0,1,1.6,3"/><path class="cls-76" d="M500.3,335.87a20.71,20.71,0,0,1,1.5,2.74"/><line class="cls-76" x1="525.51" y1="343.52" x2="491.11" y2="343.33"/><path class="cls-76" d="M524.56,338s-8.08.18-8.78,5.43"/><path class="cls-76" d="M495.53,338.38a28.75,28.75,0,0,1,2.66,5"/><path class="cls-45" d="M502.92,223.24s-2.22,33.64-1.34,57,2.15,47.25,2.15,47.25h23s-.67-38-.13-52.34,2.86-33.71,2.86-33.71,5.09-6.16,2.12-20.07"/><path class="cls-77" d="M506.78,223.24s-2.31,33.64-1.39,57,2.23,47.25,2.23,47.25"/><path class="cls-77" d="M514.54,229.91s6.74.24,10,0"/><path class="cls-75" d="M536.39,230.22s5.93-.14,8.79-.55"/><line class="cls-77" x1="503.51" y1="322.9" x2="526.69" y2="322.9"/><path class="cls-78" d="M557.28,195.19c-2.17-17.06-6.78-25.46-11.28-30.84a23.46,23.46,0,0,0-13.38-8.07l-1,21.4s8.82,18,8.78,20.39c-.1,5.65-7.21,25.2-7.21,25.2l15.16-1.38S558.47,204.56,557.28,195.19Z"/><path class="cls-37" d="M467.93,147.19c-3.82-2.9-13.5-13.09-14.4-12.69s2.46,4,1.67,4.22-6.35-5.05-7.14-4.41c-1.06.87,4.91,5.93,4.91,5.93s-1.52-.62-2.23.4c-.51.72.93,2.19.93,2.19s-1.68-.63-2.19.13,1.11,2.49,1.11,2.49-1.35-.67-1.67.11c-.52,1.28,3.49,5.33,11,12.33"/><path class="cls-79" d="M532.62,156.28s11.92,4.5,14.77,20.65c1.27,7.18.94,47.72.94,47.69-22.12,3.91-45.78-.82-45.78-.82s.93-31.22.72-40.75c-.51-22.76,17.68-26.31,17.68-26.31Z"/><path class="cls-80" d="M548.34,221.89a137.11,137.11,0,0,1-45.77-1"/><path class="cls-79" d="M531.61,156.32s-14-.56-24.58.89c-10.9,1.51-18.81,2.33-23,.88s-20.05-16-20.05-16l-11.31,11.21s17.06,22.39,32.25,24.26,31.82-2.08,31.82-2.08"/><line class="cls-80" x1="503.53" y1="177.61" x2="514.37" y2="175.92"/></g></g></g></svg>